<?xml version="1.0" standalone="no"?><!DOCTYPE svg PUBLIC "-//W3C//DTD SVG 1.1//EN" "http://www.w3.org/Graphics/SVG/1.1/DTD/svg11.dtd"><svg class="icon" width="48px" height="48.00px" viewBox="0 0 1024 1024" version="1.1" xmlns="http://www.w3.org/2000/svg"><path d="M823.7 87h-251c-29.1 0-55.5 11.7-74.8 30.7-19.2-19-45.6-30.7-74.7-30.7h-251c-58.9 0-106.8 47.9-106.8 106.8v518c0 17.7 14.3 32 32 32h304.4c44.4 0 67.8 36.5 68.6 37.8 0.4 0.7 1 1.1 1.4 1.8 0.5 0.7 1 1.3 1.5 1.9 1.7 2 3.6 3.8 5.6 5.4l1.2 0.9c5.2 3.5 11.3 5.6 17.7 5.6 2.8 0 5.7-0.4 8.5-1.2 1.2-0.3 2.2-1.1 3.3-1.5 1.6-0.6 3.1-1.3 4.6-2.1 1.3-0.8 2.4-1.7 3.6-2.6 1.4-1.1 2.6-2.3 3.8-3.6 0.8-0.9 1.7-1.9 2.4-2.9 0.3-0.5 0.8-0.9 1.1-1.4 1-1.6 24.4-38.1 68.8-38.1h304.4c17.7 0 32-14.3 32-32v-518C930.5 134.9 882.6 87 823.7 87zM401.9 679.7H129.6V193.8c0-23.6 19.2-42.7 42.7-42.7h251c23.6 0 42.7 19.2 42.7 42.7V695c-17.5-8.9-38.8-15.3-64.1-15.3z m464.6 0H594.1c-25.3 0-46.6 6.4-64.1 15.3V193.8c0-23.6 19.2-42.7 42.7-42.7h251c23.6 0 42.7 19.2 42.7 42.7v485.9zM385.9 253.9H209.7c-17.7 0-32 14.3-32 32s14.3 32 32 32h176.2c17.7 0 32-14.3 32-32 0-17.6-14.3-32-32-32zM385.9 394.7H209.7c-17.7 0-32 14.3-32 32s14.3 32 32 32h176.2c17.7 0 32-14.3 32-32s-14.3-32-32-32zM385.9 535.5H209.7c-17.7 0-32 14.3-32 32s14.3 32 32 32h176.2c17.7 0 32-14.3 32-32 0-17.6-14.3-32-32-32zM786.4 253.9H610.1c-17.7 0-32 14.3-32 32s14.3 32 32 32h176.2c17.7 0 32-14.3 32-32 0.1-17.6-14.2-32-31.9-32zM786.4 394.7H610.1c-17.7 0-32 14.3-32 32s14.3 32 32 32h176.2c17.7 0 32-14.3 32-32s-14.2-32-31.9-32zM786.4 535.5H610.1c-17.7 0-32 14.3-32 32s14.3 32 32 32h176.2c17.7 0 32-14.3 32-32 0.1-17.6-14.2-32-31.9-32zM898.5 839.9h-795c-17.7 0-32 14.3-32 32s14.3 32 32 32h795c17.7 0 32-14.3 32-32 0-17.6-14.3-32-32-32z" /></svg>