<?xml version="1.0" standalone="no"?><!DOCTYPE svg PUBLIC "-//W3C//DTD SVG 1.1//EN" "http://www.w3.org/Graphics/SVG/1.1/DTD/svg11.dtd"><svg t="1748421470408" class="icon" viewBox="0 0 1024 1024" version="1.1" xmlns="http://www.w3.org/2000/svg" p-id="9325" xmlns:xlink="http://www.w3.org/1999/xlink" width="81" height="81"><path d="M682.688 96L896 304v598.72a32 32 0 0 1-32 32h-704a32 32 0 0 1-32-32V137.6c0-22.976 19.072-41.6 42.688-41.6h512zM640 185.6H217.792v659.584h589.312V345.6H672a32 32 0 0 1-32-32v-128z m42.688 464v83.2H341.312v-83.2h341.376z m0-172.8v83.2H341.312v-83.2h341.376z m-213.376-172.8v83.2h-128v-83.2h128z" p-id="9326"></path></svg>