<?xml version="1.0" standalone="no"?><!DOCTYPE svg PUBLIC "-//W3C//DTD SVG 1.1//EN" "http://www.w3.org/Graphics/SVG/1.1/DTD/svg11.dtd"><svg t="1750995027840" class="icon" viewBox="0 0 1024 1024" version="1.1" xmlns="http://www.w3.org/2000/svg" p-id="5533" xmlns:xlink="http://www.w3.org/1999/xlink" width="81" height="81"><path d="M89.6 934.4C51.2 897.6 51.2 126.4 89.6 89.6c20.8-20.8 70.4-25.6 288-25.6h264l-4.8 43.2-4.8 44.8-232 8-232 8-4.8 348.8-3.2 347.2h332.8c236.8 0 337.6-4.8 352-19.2 12.8-12.8 19.2-86.4 19.2-224 0-182.4 3.2-204.8 28.8-219.2 57.6-30.4 67.2 8 67.2 262.4 0 214.4-3.2 246.4-28.8 268.8-25.6 24-80 27.2-424 27.2-336 0-396.8-3.2-417.6-25.6z" fill="#515151" p-id="5534"></path><path d="M304 768c-14.4-9.6-14.4-36.8 4.8-121.6l25.6-108.8 228.8-228.8C739.2 132.8 801.6 80 832 80c49.6 0 144 91.2 144 136-1.6 19.2-99.2 132.8-228.8 268.8-216 225.6-232 238.4-324.8 265.6-54.4 16-107.2 24-118.4 17.6z m99.2-131.2c-14.4-14.4-19.2-11.2-19.2 19.2s4.8 33.6 19.2 19.2 14.4-24 0-38.4z m368-353.6c-12.8-16-28.8-25.6-33.6-24-6.4 3.2-73.6 72-152 153.6-136 140.8-140.8 148.8-115.2 177.6s32 24 177.6-124.8c139.2-144 147.2-155.2 123.2-182.4z m108.8-97.6c-11.2-14.4-28.8-25.6-41.6-25.6-35.2 0-43.2 32-12.8 65.6 25.6 27.2 30.4 28.8 51.2 8 20.8-19.2 20.8-28.8 3.2-48z" fill="#515151" p-id="5535"></path></svg>