<?xml version="1.0" standalone="no"?><!DOCTYPE svg PUBLIC "-//W3C//DTD SVG 1.1//EN" "http://www.w3.org/Graphics/SVG/1.1/DTD/svg11.dtd"><svg t="1748421020225" class="icon" viewBox="0 0 1024 1024" version="1.1" xmlns="http://www.w3.org/2000/svg" p-id="3442" xmlns:xlink="http://www.w3.org/1999/xlink" width="81" height="81"><path d="M706.048 841.216c-77.824 0-140.8-62.976-140.8-140.288 0-77.824 62.976-140.8 140.8-140.8s140.8 62.976 140.8 140.8c-0.512 77.824-63.488 140.288-140.8 140.288z m0-312.832c-95.744 0-173.056 77.312-173.056 172.544s77.824 172.544 173.056 172.544 173.056-77.312 173.056-172.544-77.824-172.544-173.056-172.544z m-91.136 156.16c-5.12 0-9.216 2.048-12.8 5.632-3.072 3.072-5.12 7.68-4.608 12.8 0 4.608 2.048 8.704 5.632 12.288l73.216 67.584c4.096 3.072 8.192 5.12 13.312 4.608 5.12-0.512 9.216-3.072 12.288-7.168l98.816-133.632c5.632-7.68 4.096-18.432-4.096-24.064-7.68-5.632-18.432-4.096-24.064 4.096l-87.04 117.76-58.88-54.784c-3.072-3.072-7.68-5.12-11.776-5.12z m-399.36 24.064c-19.456-2.048-34.304-18.432-34.304-37.376V304.128c0-20.992 16.896-36.352 37.888-36.352h556.544c20.992 0 39.936 15.36 39.936 36.352v227.84c9.216 7.168 28.672 15.36 36.864 24.064V280.576c0-28.16-35.84-48.64-64-48.64H195.584c-28.16 0-50.688 31.232-50.688 59.392v392.704c0 26.624 19.968 58.88 45.568 61.952h316.928c-2.048-8.192-4.096-27.648-5.12-36.352l-286.72-1.024z m121.856-163.84c-3.072 4.096-7.68 6.656-12.288 9.216-7.168 4.608-14.848 7.68-23.04 9.728-8.192 2.048-16.896 5.12-25.6 7.68-7.68 2.56-14.848 6.656-20.992 11.776-6.656 5.632-10.24 12.8-11.264 20.992-2.048 15.872-3.072 29.184-1.536 38.912 1.024 9.728 3.072 15.872 5.632 18.432 3.072 1.536 7.168 3.072 11.264 4.096 5.632 1.024 12.8 2.56 20.992 4.096 8.192 1.024 16.896 2.048 27.648 3.072 19.968 2.048 39.936 4.096 59.904 5.12 16.896 1.024 33.792 1.024 50.688 0 20.992-1.024 41.984-2.56 62.464-5.12 6.144-0.512 11.776-1.536 16.896-2.048v-103.424c-2.048-0.512-4.096-1.024-5.632-1.536-7.168-1.536-13.824-4.608-20.48-6.656-6.144-2.048-11.776-5.12-15.872-9.216-3.072-3.072-6.656-6.656-8.704-11.264-1.536-4.096-2.56-7.68-3.072-11.776 0-4.096 0-7.68 0.512-11.776 1.024-6.144 2.56-10.24 6.144-13.312 2.56-2.56 6.656-5.632 11.776-9.216 2.048-2.048 4.096-4.608 5.632-7.168 1.536-3.072 2.56-6.144 4.608-9.216 1.024-4.096 2.56-7.68 4.096-11.776 2.56-1.024 5.12-2.048 7.168-4.096 2.048-2.048 4.096-4.608 5.632-7.168 1.536-4.096 2.56-8.192 3.072-12.288 1.024-5.632 0-11.776-2.56-16.384-1.024-1.536-2.048-3.072-4.608-5.12 0-9.728-0.512-20.48-1.536-30.208-1.536-9.216-3.072-18.432-6.144-27.648s-7.68-18.432-14.336-26.112c-3.072-4.096-7.168-7.68-11.264-10.24-5.12-4.096-10.24-6.656-16.384-9.216-6.656-2.56-13.312-5.12-19.968-6.656-7.68-1.536-14.848-2.048-22.016-2.048-5.632 0-11.776 0.512-17.408 1.024-13.312 2.048-25.6 7.168-35.84 15.36-6.144 5.12-11.776 10.24-15.872 16.896-5.632 7.68-9.216 15.872-11.776 24.576-5.12 17.408-7.168 35.84-6.656 54.272-2.048 2.048-4.096 5.12-5.12 7.68-1.024 2.56-1.536 6.144-2.048 8.704-0.512 4.096 0 7.68 1.536 11.776 1.536 6.144 5.12 11.264 9.216 14.848 1.536 1.024 3.072 2.048 5.12 2.56 1.024 4.608 2.56 8.192 4.096 11.776 1.024 3.072 2.56 6.656 4.096 9.216 1.536 2.56 3.072 5.632 5.632 7.168 4.608 3.072 8.192 6.656 11.776 9.728 3.072 3.072 5.632 7.68 6.144 13.824 0.512 4.096 0.512 7.68 0.512 10.24 0 3.072-0.512 6.144-1.536 9.216-4.096 3.072-6.144 6.656-8.704 8.704z m263.68-22.016c0-8.192-6.656-14.336-14.848-14.336h-52.736c-8.192 0-14.848 6.656-14.848 14.336 0 8.192 6.656 14.848 14.848 14.848h52.736c8.192-0.512 14.848-7.168 14.848-14.848z m128-87.552h-195.584c-8.192 0-14.848 6.656-14.848 14.848 0 8.192 6.656 14.848 14.848 14.848h195.584c8.192 0 14.848-6.656 14.848-14.848 0-8.704-6.656-14.848-14.848-14.848z m0-73.216h-195.584c-8.192 0-14.848 6.656-14.848 14.336 0 8.192 6.656 14.848 14.848 14.848h195.584c4.096 0 7.68-1.536 10.24-4.608 2.56-2.56 4.608-6.656 4.608-10.24s-1.536-7.68-4.608-10.24c-2.56-2.56-6.656-4.096-10.24-4.096z" fill="#272635" p-id="3443"></path></svg>