<?xml version="1.0" standalone="no"?><!DOCTYPE svg PUBLIC "-//W3C//DTD SVG 1.1//EN" "http://www.w3.org/Graphics/SVG/1.1/DTD/svg11.dtd"><svg t="1748610931786" class="icon" viewBox="0 0 1024 1024" version="1.1" xmlns="http://www.w3.org/2000/svg" p-id="5422" xmlns:xlink="http://www.w3.org/1999/xlink" width="81" height="81"><path d="M512 0a512 512 0 1 1 0 1024A512 512 0 0 1 512 0z m0 91.022222a420.977778 420.977778 0 1 0 0 841.955556A420.977778 420.977778 0 0 0 512 91.022222zM512 227.555556a56.888889 56.888889 0 0 1 56.888889 56.888888v170.609778L739.555556 455.111111a56.888889 56.888889 0 1 1 0 113.777778l-170.666667-0.056889V739.555556a56.888889 56.888889 0 1 1-113.777778 0V568.832L284.444444 568.888889a56.888889 56.888889 0 1 1 0-113.777778l170.666667-0.056889V284.444444a56.888889 56.888889 0 0 1 56.888889-56.888888z" fill="#979797" p-id="5423"></path></svg>