<?xml version="1.0" standalone="no"?><!DOCTYPE svg PUBLIC "-//W3C//DTD SVG 1.1//EN" "http://www.w3.org/Graphics/SVG/1.1/DTD/svg11.dtd"><svg t="1751480126533" class="icon" viewBox="0 0 1024 1024" version="1.1" xmlns="http://www.w3.org/2000/svg" p-id="7532" xmlns:xlink="http://www.w3.org/1999/xlink" width="81" height="81"><path d="M984.576 224.548571H39.350857a39.350857 39.350857 0 1 1 0-78.774857h256v-66.998857A78.994286 78.994286 0 0 1 374.125714 0h275.748572a78.994286 78.994286 0 0 1 78.774857 78.774857v66.998857h256a39.350857 39.350857 0 0 1 0 78.774857zM649.801143 78.774857H374.125714v58.953143h275.748572v-58.953143z m35.401143 753.078857a37.741714 37.741714 0 0 1-55.149715 0L512 713.654857l-118.125714 118.198857a37.741714 37.741714 0 0 1-55.076572 0 38.034286 38.034286 0 0 1 0-55.076571L456.850286 658.285714l-114.102857-114.322285a38.985143 38.985143 0 1 1 55.076571-55.149715L512 603.209143 626.102857 488.813714a38.985143 38.985143 0 1 1 55.149714 55.149715L567.149714 658.285714l118.052572 118.491429a38.034286 38.034286 0 0 1-0.146286 55.076571h0.146286z m-574.902857-540.525714a37.302857 37.302857 0 0 1 39.350857 39.497143v582.948571a31.085714 31.085714 0 0 0 31.451428 31.451429h657.773715a31.158857 31.158857 0 0 0 31.451428-31.451429v-582.948571a37.302857 37.302857 0 0 1 39.497143-39.497143 32.621714 32.621714 0 0 1 35.401143 39.497143v582.948571A110.08 110.08 0 0 1 834.925714 1024H181.174857a110.08 110.08 0 0 1-110.299428-110.226286v-582.948571a37.302857 37.302857 0 0 1 39.350857-39.497143z" fill="#585858" p-id="7533"></path></svg>