<?xml version="1.0" standalone="no"?><!DOCTYPE svg PUBLIC "-//W3C//DTD SVG 1.1//EN" "http://www.w3.org/Graphics/SVG/1.1/DTD/svg11.dtd"><svg t="1752507199547" class="icon" viewBox="0 0 1024 1024" version="1.1" xmlns="http://www.w3.org/2000/svg" p-id="3529" xmlns:xlink="http://www.w3.org/1999/xlink" width="81" height="81"><path d="M842.048974 188.534215H174.1367a31.419764 31.419764 0 1 1 0-62.870791h188.065264C376.676939 58.400118 436.577703 7.815862 508.108469 7.815862c71.499502 0 131.400266 50.584257 145.875242 117.847562h188.065263a31.419764 31.419764 0 1 1 0 62.870791zM508.108469 70.686653a86.505957 86.505957 0 0 0-80.425217 54.976771h160.803538a86.459062 86.459062 0 0 0-80.378321-54.976771zM247.527641 238.993418h521.130392a62.870791 62.870791 0 0 1 62.85516 62.870791v643.495522c0 34.733689-28.137102 62.886423-62.85516 62.886423H247.527641a62.870791 62.870791 0 0 1-62.855159-62.886423V301.864209c0-34.718057 28.137102-62.870791 62.855159-62.870791z m0 706.366313h521.130392V301.864209H247.527641v643.495522z m400.203381-80.472112c-11.583107 0-20.946509-9.379034-20.94651-20.962141V574.200093a20.946509 20.946509 0 1 1 41.908651 0v269.725385c0 11.583107-9.394666 20.962141-20.962141 20.962141z m0-370.065417c-11.583107 0-20.946509-9.379034-20.94651-20.977773v-65.872082a20.946509 20.946509 0 1 1 41.908651 0v65.872082c0 11.598739-9.394666 20.977773-20.962141 20.977773z m-145.453186 370.065417a20.946509 20.946509 0 0 1-20.977773-20.962141V407.972347a20.946509 20.946509 0 0 1 41.924282 0v435.953131c0 11.583107-9.379034 20.962141-20.946509 20.962141z m-145.515712 0c-11.567475 0-20.977773-9.379034-20.977773-20.962141V407.972347a20.977773 20.977773 0 0 1 41.924282 0v435.953131a20.946509 20.946509 0 0 1-20.946509 20.962141z" p-id="3530"></path></svg>