<?xml version="1.0" standalone="no"?><!DOCTYPE svg PUBLIC "-//W3C//DTD SVG 1.1//EN" "http://www.w3.org/Graphics/SVG/1.1/DTD/svg11.dtd"><svg t="1748421313554" class="icon" viewBox="0 0 1024 1024" version="1.1" xmlns="http://www.w3.org/2000/svg" p-id="6251" xmlns:xlink="http://www.w3.org/1999/xlink" width="81" height="81"><path d="M960.908904 216.987453l-154.073791 227.639305 96.476631 47.516268c29.381772 14.468718 50.432229 37.824171 59.207881 65.817391 8.775652 27.965448 4.276742 57.180594-12.69137 82.230082l-208.560593 308.092039c-16.968112 25.10503-44.350368 43.045129-77.14798 50.543313a150.296928 150.296928 0 0 1-33.103092 3.721321 143.409707 143.409707 0 0 1-63.317997-14.552031L68.430639 742.110256C39.048867 727.641538 18.026181 704.286084 9.250529 676.292865c-8.831194-27.965448-4.304513-57.180594 12.691371-82.230082L230.44695 285.915201c35.019295-51.765239 112.944864-69.566483 173.624611-39.65706l130.440626 64.23444 154.04602-227.583762c40.268024-59.541133 129.829663-79.952856 199.562772-45.627837l19.300881 9.497699c69.733109 34.380561 93.727297 110.72318 53.487044 170.208772zM219.921722 409.940715l-142.96537 211.198843a46.988618 46.988618 0 0 0-6.359571 41.128926c4.387826 13.968839 14.913054 25.688222 29.60394 32.908695L599.468676 941.034294c14.690886 7.248244 31.825624 9.164447 48.210544 5.443126 16.38492-3.776863 30.076048-12.746912 38.57399-25.271657l137.050136-202.478732L219.921722 409.940715z m152.379757-116.721727c-30.409301-14.996368-69.316543-6.054089-86.812306 19.800759l-33.797369 49.960121 603.381625 308.814087 39.712603-58.680231c8.497942-12.552515 10.747397-27.160088 6.35957-41.128927-4.387826-13.968839-14.885283-25.688222-29.60394-32.908695L372.301479 293.218988z m503.350299-199.50723l-19.300881-9.4977a94.699284 94.699284 0 0 0-62.651491-7.026076c-21.272625 4.859934-39.073869 16.496004-50.098976 32.797611l-154.073791 227.611534 162.266251 79.925085 154.073791-227.639305c22.744491-33.602972 9.192218-76.731414-30.214903-96.171149z" fill="#262626" p-id="6252"></path></svg>