<?xml version="1.0" standalone="no"?><!DOCTYPE svg PUBLIC "-//W3C//DTD SVG 1.1//EN" "http://www.w3.org/Graphics/SVG/1.1/DTD/svg11.dtd"><svg t="1748421440514" class="icon" viewBox="0 0 1024 1024" version="1.1" xmlns="http://www.w3.org/2000/svg" p-id="8313" xmlns:xlink="http://www.w3.org/1999/xlink" width="81" height="81"><path d="M870.4 448c-19.2-25.6-44.8-38.4-76.8-38.4V326.4c-6.4-76.8-32-134.4-89.6-185.6C652.8 83.2 588.8 64 512 64s-134.4 19.2-192 70.4-83.2 115.2-89.6 192v83.2c-25.6 0-51.2 12.8-76.8 38.4-19.2 25.6-32 51.2-25.6 83.2V832c0 32 12.8 64 38.4 89.6 25.6 25.6 51.2 38.4 89.6 38.4h524.8c32 0 64-12.8 89.6-38.4s38.4-51.2 38.4-89.6V531.2c-6.4-32-19.2-57.6-38.4-83.2zM300.8 326.4c6.4-57.6 25.6-102.4 64-134.4 44.8-44.8 89.6-64 147.2-64 57.6 0 102.4 19.2 140.8 57.6 38.4 38.4 64 83.2 64 134.4v83.2H300.8V326.4z m473.6 556.8H249.6c-12.8 0-25.6-6.4-38.4-19.2-12.8-6.4-19.2-19.2-12.8-32V531.2c0-12.8 6.4-25.6 12.8-38.4 12.8-12.8 25.6-19.2 38.4-19.2h524.8c12.8 0 25.6 6.4 38.4 19.2 12.8 12.8 19.2 25.6 19.2 38.4V832c0 12.8-6.4 25.6-12.8 38.4-12.8 6.4-25.6 12.8-44.8 12.8z" fill="#090A19" p-id="8314"></path><path d="M512 576c19.2 0 32 12.8 32 32v128c0 19.2-12.8 32-32 32s-32-12.8-32-32v-128c0-19.2 12.8-32 32-32z" fill="#939393" p-id="8315"></path></svg>