<?xml version="1.0" standalone="no"?><!DOCTYPE svg PUBLIC "-//W3C//DTD SVG 1.1//EN" "http://www.w3.org/Graphics/SVG/1.1/DTD/svg11.dtd"><svg t="1748421340928" class="icon" viewBox="0 0 1024 1024" version="1.1" xmlns="http://www.w3.org/2000/svg" p-id="7303" xmlns:xlink="http://www.w3.org/1999/xlink" width="81" height="81"><path d="M671.288889 915.911111c-28.444444 11.377778-56.888889 36.977778-82.488889 59.733333-31.288889 28.444444-51.2 45.511111-76.8 45.511112-25.6 0-45.511111-19.911111-76.8-45.511112-25.6-22.755556-54.044444-48.355556-82.488889-59.733333-187.733333-76.8-310.044444-250.311111-310.044444-443.733333C42.666667 213.333333 253.155556 0 512 0s469.333333 213.333333 469.333333 472.177778c0 193.422222-122.311111 366.933333-310.044444 443.733333zM512 56.888889C284.444444 56.888889 99.555556 244.622222 99.555556 472.177778c0 170.666667 105.244444 321.422222 275.911111 392.533333 36.977778 14.222222 71.111111 45.511111 99.555555 71.111111 14.222222 11.377778 31.288889 28.444444 39.822222 31.288889 8.533333-5.688889 25.6-19.911111 39.822223-31.288889 28.444444-25.6 59.733333-54.044444 99.555555-71.111111 170.666667-71.111111 275.911111-221.866667 275.911111-392.533333C924.444444 244.622222 739.555556 56.888889 512 56.888889z m0 682.666667c-22.755556 0-42.666667-11.377778-42.666667-28.444445v-227.555555c0-17.066667 19.911111-28.444444 42.666667-28.444445s42.666667 11.377778 42.666667 28.444445v227.555555c0 17.066667-19.911111 28.444444-42.666667 28.444445z m0-369.777778c-22.755556 0-42.666667-11.377778-42.666667-28.444445v-56.888889c0-17.066667 19.911111-28.444444 42.666667-28.444444s42.666667 11.377778 42.666667 28.444444v56.888889c0 17.066667-19.911111 28.444444-42.666667 28.444445z" fill="#262626" p-id="7304"></path></svg>